<svg xmlns="http://www.w3.org/2000/svg" width="25.769" height="22.429" viewBox="0 0 25.769 22.429">
  <g id="Grupo_1404" data-name="Grupo 1404" transform="translate(-201.446 1.25)">
    <path id="Caminho_5237" data-name="Caminho 5237" d="M220.027,4.23a25.709,25.709,0,0,1,2.418,2.3,1.783,1.783,0,0,1,0,2.459c-1.946,2.094-6.365,6.155-11.508,6.155a10.252,10.252,0,0,1-1.817-.164" transform="translate(3.395 2.21)" fill="none" stroke="#4a4f5c" stroke-linecap="round" stroke-linejoin="round" stroke-width="1.5"/>
    <path id="Caminho_5238" data-name="Caminho 5238" d="M205.8,13.018a25.324,25.324,0,0,1-2.979-2.748,1.783,1.783,0,0,1,0-2.459c1.946-2.094,6.365-6.155,11.508-6.155a10.549,10.549,0,0,1,2.678.354" transform="translate(0 0.923)" fill="none" stroke="#4a4f5c" stroke-linecap="round" stroke-linejoin="round" stroke-width="1.5"/>
    <path id="Caminho_5239" data-name="Caminho 5239" d="M213.616,7.177a3.689,3.689,0,0,1-2.688,2.687" transform="translate(4.299 3.683)" fill="none" stroke="#4a4f5c" stroke-linecap="round" stroke-linejoin="round" stroke-width="1.5"/>
    <path id="Caminho_5240" data-name="Caminho 5240" d="M207.87,7.811a3.692,3.692,0,0,1,3.692-3.693" transform="translate(2.77 2.154)" fill="none" stroke="#4a4f5c" stroke-linecap="round" stroke-linejoin="round" stroke-width="1.5"/>
    <path id="Caminho_5241" data-name="Caminho 5241" d="M223.869-.189,203.562,20.118" transform="translate(0.615 0)" fill="none" stroke="#4a4f5c" stroke-linecap="round" stroke-linejoin="round" stroke-width="1.5"/>
  </g>
</svg>
